
<svg width="100%" height="100%"
 viewBox="-0.957758 -0.957758 56.6994 42.9074"
 xmlns="http://www.w3.org/2000/svg" xmlns:xlink="http://www.w3.org/1999/xlink"  version="1.2" baseProfile="tiny">
<defs>
</defs>
<g fill="none" stroke="black" vector-effect="non-scaling-stroke" stroke-width="1" fill-rule="evenodd" stroke-linecap="square" stroke-linejoin="bevel" >

<g fill="none" stroke="#000000" stroke-opacity="1" vector-effect="non-scaling-stroke" stroke-width="1" stroke-linecap="square" stroke-linejoin="bevel" transform="matrix(1,0,0,-1,-197.62,95.6305)"
font-family="Sans Serif" font-size="11.25" font-weight="400" font-style="normal" 
>
</g>

<g fill="#aaaa00" fill-opacity="0.498039" stroke="#aaaa00" stroke-opacity="0.498039" stroke-width="0.25" stroke-linecap="square" stroke-linejoin="bevel" transform="matrix(1,0,0,-1,-197.62,95.6305)"
font-family="Sans Serif" font-size="11.25" font-weight="400" font-style="normal" 
>
<path fill-rule="evenodd" d="M222.75,54.7576 L233.63,54.6607 L241.463,54.6386 L252.109,54.6605 L252.17,54.6644 L252.225,54.6755 L252.273,54.6933 L252.315,54.7172 L252.348,54.7466 L252.377,54.7858 L252.396,54.8305 L252.404,54.8744 L252.402,54.9277 L252.392,54.978 L252.372,55.0304 L252.342,55.0845 L247.408,62.9072 L243.16,69.56 L239.319,75.4751 L233.6,84.18 L227.822,92.983 L226.242,95.4072 L226.208,95.4517 L226.169,95.4917 L226.125,95.5269 L226.072,95.5612 L226.021,95.5859 L225.961,95.6078 L225.899,95.6227 L225.843,95.6299 L225.764,95.6305 L225.692,95.6209 L225.654,95.6113 L225.616,95.5986 L225.551,95.5678 L220.335,92.4651 L216.3,90.12 L209.02,86.0222 L206.58,84.62 L204.775,83.5263 L203.42,82.6357 L202.772,82.1737 L202.244,81.7724 L201.749,81.3706 L201.28,80.96 L200.793,80.4945 L200.393,80.0739 L199.971,79.5807 L199.632,79.1361 L199.279,78.6105 L198.999,78.1332 L198.747,77.6376 L198.52,77.12 L198.294,76.5055 L198.124,75.9413 L197.96,75.2673 L197.829,74.5609 L197.73,73.8213 L197.663,73.0473 L197.626,72.2378 L197.62,71.48 L197.636,70.733 L197.682,69.8243 L197.753,68.888 L197.86,67.8109 L198.142,65.6225 L198.52,63.24 L199.066,60.2728 L200.082,55.2917 L200.094,55.2446 L200.114,55.1908 L200.14,55.1386 L200.171,55.0886 L200.207,55.041 L200.248,54.9964 L200.292,54.9551 L200.34,54.9176 L200.405,54.8757 L200.473,54.8415 L200.545,54.8161 L200.617,54.8003 L200.682,54.7951 L201.182,54.7884 L204.147,54.7746 L215.45,54.8007 L220.657,54.7763 L222.75,54.7576"/>
</g>

<g fill="none" stroke="#000000" stroke-opacity="1" vector-effect="non-scaling-stroke" stroke-width="1" stroke-linecap="square" stroke-linejoin="bevel" transform="matrix(1,0,0,-1,-197.62,95.6305)"
font-family="Sans Serif" font-size="11.25" font-weight="400" font-style="normal" 
>
</g>

<g fill="none" stroke="#000000" stroke-opacity="1" vector-effect="non-scaling-stroke" stroke-width="1" stroke-linecap="square" stroke-linejoin="bevel" transform="matrix(1,0,0,-1,-197.62,95.6305)"
font-family="Sans Serif" font-size="11.25" font-weight="400" font-style="normal" 
>
</g>

<g fill="#000000" fill-opacity="1" stroke="#000000" stroke-opacity="1" stroke-width="0.375" stroke-linecap="square" stroke-linejoin="bevel" transform="matrix(1,0,0,-1,-197.62,95.6305)"
font-family="Sans Serif" font-size="11.25" font-weight="400" font-style="normal" 
>
<polyline fill="none" points="222.75,54.7576 233.63,54.6607 241.463,54.6386 252.109,54.6605 252.17,54.6644 252.225,54.6755 252.273,54.6933 252.315,54.7172 252.348,54.7466 252.377,54.7858 252.396,54.8305 252.404,54.8744 252.402,54.9277 252.392,54.978 252.372,55.0304 252.342,55.0845 247.408,62.9072 243.16,69.56 239.319,75.4751 233.6,84.18 227.822,92.983 226.242,95.4072 226.208,95.4517 226.169,95.4917 226.125,95.5269 226.072,95.5612 226.021,95.5859 225.961,95.6078 225.899,95.6227 225.843,95.6299 225.764,95.6305 225.692,95.6209 225.654,95.6113 225.616,95.5986 225.551,95.5678 220.335,92.4651 216.3,90.12 209.02,86.0222 206.58,84.62 204.775,83.5263 203.42,82.6357 202.772,82.1737 202.244,81.7724 201.749,81.3706 201.28,80.96 200.793,80.4945 200.393,80.0739 199.971,79.5807 199.632,79.1361 199.279,78.6105 198.999,78.1332 198.747,77.6376 198.52,77.12 198.294,76.5055 198.124,75.9413 197.96,75.2673 197.829,74.5609 197.73,73.8213 197.663,73.0473 197.626,72.2378 197.62,71.48 197.636,70.733 197.682,69.8243 197.753,68.888 197.86,67.8109 198.142,65.6225 198.52,63.24 199.066,60.2728 200.082,55.2917 200.094,55.2446 200.114,55.1908 200.14,55.1386 200.171,55.0886 200.207,55.041 200.248,54.9964 200.292,54.9551 200.34,54.9176 200.405,54.8757 200.473,54.8415 200.545,54.8161 200.617,54.8003 200.682,54.7951 201.182,54.7884 204.147,54.7746 215.45,54.8007 220.657,54.7763 222.75,54.7576 " />
</g>

<g fill="none" stroke="#000000" stroke-opacity="1" vector-effect="non-scaling-stroke" stroke-width="1" stroke-linecap="square" stroke-linejoin="bevel" transform="matrix(1,0,0,-1,-197.62,95.6305)"
font-family="Sans Serif" font-size="11.25" font-weight="400" font-style="normal" 
>
</g>

<g fill="none" stroke="#000000" stroke-opacity="1" vector-effect="non-scaling-stroke" stroke-width="1" stroke-linecap="square" stroke-linejoin="bevel" transform="matrix(1,0,0,-1,-197.62,95.6305)"
font-family="Sans Serif" font-size="11.25" font-weight="400" font-style="normal" 
>
</g>

<g fill="#000000" fill-opacity="1" stroke="#000000" stroke-opacity="1" stroke-width="0.75" stroke-linecap="square" stroke-linejoin="bevel" transform="matrix(1,0,0,-1,-197.62,95.6305)"
font-family="Sans Serif" font-size="11.25" font-weight="400" font-style="normal" 
>
<polyline fill="none" points="207.411,76.5526 206.97,76.2166 206.492,75.8059 206.069,75.3884 205.704,74.9609 205.402,74.5199 205.166,74.0609 205.016,73.6548 204.91,73.2339 204.843,72.7999 204.808,72.2776 204.811,71.7386 204.852,71.1032 205.576,65.4654 205.956,62.9621 " />
</g>

<g fill="none" stroke="#000000" stroke-opacity="1" vector-effect="non-scaling-stroke" stroke-width="1" stroke-linecap="square" stroke-linejoin="bevel" transform="matrix(1,0,0,-1,-197.62,95.6305)"
font-family="Sans Serif" font-size="11.25" font-weight="400" font-style="normal" 
>
</g>

<g fill="none" stroke="#000000" stroke-opacity="1" vector-effect="non-scaling-stroke" stroke-width="1" stroke-linecap="square" stroke-linejoin="bevel" transform="matrix(1,0,0,-1,-197.62,95.6305)"
font-family="Sans Serif" font-size="11.25" font-weight="400" font-style="normal" 
>
</g>

<g fill="#000000" fill-opacity="1" stroke="#000000" stroke-opacity="1" stroke-width="0.75" stroke-linecap="square" stroke-linejoin="bevel" transform="matrix(1,0,0,-1,-197.62,95.6305)"
font-family="Sans Serif" font-size="11.25" font-weight="400" font-style="normal" 
>
<polyline fill="none" points="220.696,84.3541 212.054,79.4545 210.463,78.5231 " />
</g>

<g fill="none" stroke="#000000" stroke-opacity="1" vector-effect="non-scaling-stroke" stroke-width="1" stroke-linecap="square" stroke-linejoin="bevel" transform="matrix(1,0,0,-1,-197.62,95.6305)"
font-family="Sans Serif" font-size="11.25" font-weight="400" font-style="normal" 
>
</g>

<g fill="none" stroke="#000000" stroke-opacity="1" vector-effect="non-scaling-stroke" stroke-width="1" stroke-linecap="square" stroke-linejoin="bevel" transform="matrix(1,0,0,-1,-197.62,95.6305)"
font-family="Sans Serif" font-size="11.25" font-weight="400" font-style="normal" 
>
</g>

<g fill="#000000" fill-opacity="1" stroke="#000000" stroke-opacity="1" stroke-width="0.25" stroke-linecap="square" stroke-linejoin="bevel" transform="matrix(0.0917857,-0.0396911,0.0396911,0.0917857,25.5324,28.5999)"
font-family="Bitstream Vera Sans" font-size="40" font-weight="400" font-style="normal" 
>
<text fill="#000000" fill-opacity="1" stroke="none" xml:space="preserve" x="-22.5" y="-8" font-family="Bitstream Vera Sans" font-size="40" font-weight="400" font-style="normal" 
 >8B</text>
</g>

<g fill="none" stroke="#000000" stroke-opacity="1" vector-effect="non-scaling-stroke" stroke-width="1" stroke-linecap="square" stroke-linejoin="bevel" transform="matrix(1,0,0,-1,-197.62,95.6305)"
font-family="Sans Serif" font-size="11.25" font-weight="400" font-style="normal" 
>
</g>

<g fill="none" stroke="#000000" stroke-opacity="1" vector-effect="non-scaling-stroke" stroke-width="1" stroke-linecap="square" stroke-linejoin="bevel" transform="matrix(1,0,0,-1,-197.62,95.6305)"
font-family="Sans Serif" font-size="11.25" font-weight="400" font-style="normal" 
>
</g>

<g fill="#000000" fill-opacity="1" stroke="#000000" stroke-opacity="1" stroke-width="0.25" stroke-linecap="square" stroke-linejoin="bevel" transform="matrix(0.0917857,-0.0396911,0.0396911,0.0917857,25.5324,28.5999)"
font-family="Bitstream Vera Sans" font-size="40" font-weight="400" font-style="normal" 
>
<text fill="#000000" fill-opacity="1" stroke="none" xml:space="preserve" x="-41" y="38" font-family="Bitstream Vera Sans" font-size="40" font-weight="400" font-style="normal" 
 >gore</text>
</g>

<g fill="none" stroke="#000000" stroke-opacity="1" vector-effect="non-scaling-stroke" stroke-width="1" stroke-linecap="square" stroke-linejoin="bevel" transform="matrix(1,0,0,-1,-197.62,95.6305)"
font-family="Sans Serif" font-size="11.25" font-weight="400" font-style="normal" 
>
</g>

<g fill="none" stroke="#000000" stroke-opacity="1" vector-effect="non-scaling-stroke" stroke-width="1" stroke-linecap="square" stroke-linejoin="bevel" transform="matrix(1,0,0,-1,-197.62,95.6305)"
font-family="Sans Serif" font-size="11.25" font-weight="400" font-style="normal" 
>
</g>

<g fill="none" stroke="#000000" stroke-opacity="1" vector-effect="non-scaling-stroke" stroke-width="1" stroke-linecap="square" stroke-linejoin="bevel" transform="matrix(1,0,0,-1,-197.62,95.6305)"
font-family="Sans Serif" font-size="11.25" font-weight="400" font-style="normal" 
>
</g>
</g>
</svg>
