
<svg width="100%" height="100%"
 viewBox="-1.04923 -1.04923 28.4696 80.65"
 xmlns="http://www.w3.org/2000/svg" xmlns:xlink="http://www.w3.org/1999/xlink"  version="1.2" baseProfile="tiny">
<defs>
</defs>
<g fill="none" stroke="black" vector-effect="non-scaling-stroke" stroke-width="1" fill-rule="evenodd" stroke-linecap="square" stroke-linejoin="bevel" >

<g fill="none" stroke="#000000" stroke-opacity="1" vector-effect="non-scaling-stroke" stroke-width="1" stroke-linecap="square" stroke-linejoin="bevel" transform="matrix(1,0,0,-1,-101.688,153.69)"
font-family="Sans Serif" font-size="11.25" font-weight="400" font-style="normal" 
>
</g>

<g fill="#aaaa00" fill-opacity="0.498039" stroke="#aaaa00" stroke-opacity="0.498039" stroke-width="0.25" stroke-linecap="square" stroke-linejoin="bevel" transform="matrix(1,0,0,-1,-101.688,153.69)"
font-family="Sans Serif" font-size="11.25" font-weight="400" font-style="normal" 
>
<path fill-rule="evenodd" d="M121.757,149.802 L120.888,147.303 L119.973,144.506 L119.181,141.933 L118.603,139.925 L115.907,129.713 L111.366,113.252 L107.863,100.147 L106.514,95.4621 L104.629,89.1753 L103.668,85.7191 L103.183,83.74 L102.75,81.7861 L101.688,76.2767 L103.1,75.8027 L104.609,75.3242 L104.764,75.2812 L104.918,75.244 L105.073,75.2125 L105.304,75.1758 L105.458,75.1584 L105.689,75.1425 L105.842,75.1386 L106.07,75.1428 L106.296,75.1587 L106.52,75.1861 L106.668,75.2106 L106.888,75.2567 L107.104,75.3136 L107.317,75.3811 L107.457,75.432 L107.663,75.5168 L107.864,75.6116 L108.06,75.7161 L108.251,75.8303 L108.436,75.9537 L108.615,76.0863 L108.73,76.1796 L108.898,76.3267 L109.058,76.4824 L109.211,76.6462 L109.308,76.7599 L109.448,76.937 L109.578,77.1216 L109.7,77.3137 L109.776,77.4456 L109.882,77.6494 L109.947,77.7891 L110.036,78.004 L110.089,78.1508 L110.138,78.3004 L110.181,78.4526 L110.237,78.6859 L110.526,80.1764 L110.915,81.9365 L111.35,83.7104 L112.257,86.9719 L114.131,93.2235 L115.513,98.0232 L119.028,111.171 L123.572,127.644 L126.257,137.813 L126.79,139.666 L127.234,141.115 L127.541,142.103 L127.775,142.824 L127.821,142.981 L127.882,143.222 L127.918,143.385 L127.949,143.551 L127.977,143.72 L128,143.891 L128.02,144.064 L128.035,144.238 L128.047,144.415 L128.055,144.593 L128.059,144.772 L128.059,144.953 L128.056,145.135 L128.049,145.317 L128.038,145.501 L128.023,145.685 L128.005,145.869 L127.984,146.054 L127.959,146.239 L127.93,146.423 L127.898,146.608 L127.862,146.792 L127.824,146.976 L127.781,147.159 L127.736,147.341 L127.687,147.523 L127.635,147.703 L127.58,147.882 L127.521,148.059 L127.46,148.235 L127.395,148.408 L127.327,148.58 L127.257,148.75 L127.183,148.918 L127.067,149.165 L126.944,149.405 L126.815,149.64 L126.68,149.867 L126.539,150.086 L126.391,150.297 L126.238,150.5 L126.079,150.694 L125.914,150.877 L125.801,150.994 L123.109,153.69 L121.757,149.802"/>
</g>

<g fill="none" stroke="#000000" stroke-opacity="1" vector-effect="non-scaling-stroke" stroke-width="1" stroke-linecap="square" stroke-linejoin="bevel" transform="matrix(1,0,0,-1,-101.688,153.69)"
font-family="Sans Serif" font-size="11.25" font-weight="400" font-style="normal" 
>
</g>

<g fill="none" stroke="#000000" stroke-opacity="1" vector-effect="non-scaling-stroke" stroke-width="1" stroke-linecap="square" stroke-linejoin="bevel" transform="matrix(1,0,0,-1,-101.688,153.69)"
font-family="Sans Serif" font-size="11.25" font-weight="400" font-style="normal" 
>
</g>

<g fill="#000000" fill-opacity="1" stroke="#000000" stroke-opacity="1" stroke-width="0.375" stroke-linecap="square" stroke-linejoin="bevel" transform="matrix(1,0,0,-1,-101.688,153.69)"
font-family="Sans Serif" font-size="11.25" font-weight="400" font-style="normal" 
>
<polyline fill="none" points="121.757,149.802 120.888,147.303 119.973,144.506 119.181,141.933 118.603,139.925 115.907,129.713 111.366,113.252 107.863,100.147 106.514,95.4621 104.629,89.1753 103.668,85.7191 103.183,83.74 102.75,81.7861 101.688,76.2767 103.1,75.8027 104.609,75.3242 104.764,75.2812 104.918,75.244 105.073,75.2125 105.304,75.1758 105.458,75.1584 105.689,75.1425 105.842,75.1386 106.07,75.1428 106.296,75.1587 106.52,75.1861 106.668,75.2106 106.888,75.2567 107.104,75.3136 107.317,75.3811 107.457,75.432 107.663,75.5168 107.864,75.6116 108.06,75.7161 108.251,75.8303 108.436,75.9537 108.615,76.0863 108.73,76.1796 108.898,76.3267 109.058,76.4824 109.211,76.6462 109.308,76.7599 109.448,76.937 109.578,77.1216 109.7,77.3137 109.776,77.4456 109.882,77.6494 109.947,77.7891 110.036,78.004 110.089,78.1508 110.138,78.3004 110.181,78.4526 110.237,78.6859 110.526,80.1764 110.915,81.9365 111.35,83.7104 112.257,86.9719 114.131,93.2235 115.513,98.0232 119.028,111.171 123.572,127.644 126.257,137.813 126.79,139.666 127.234,141.115 127.541,142.103 127.775,142.824 127.821,142.981 127.882,143.222 127.918,143.385 127.949,143.551 127.977,143.72 128,143.891 128.02,144.064 128.035,144.238 128.047,144.415 128.055,144.593 128.059,144.772 128.059,144.953 128.056,145.135 128.049,145.317 128.038,145.501 128.023,145.685 128.005,145.869 127.984,146.054 127.959,146.239 127.93,146.423 127.898,146.608 127.862,146.792 127.824,146.976 127.781,147.159 127.736,147.341 127.687,147.523 127.635,147.703 127.58,147.882 127.521,148.059 127.46,148.235 127.395,148.408 127.327,148.58 127.257,148.75 127.183,148.918 127.067,149.165 126.944,149.405 126.815,149.64 126.68,149.867 126.539,150.086 126.391,150.297 126.238,150.5 126.079,150.694 125.914,150.877 125.801,150.994 123.109,153.69 121.757,149.802 " />
</g>

<g fill="none" stroke="#000000" stroke-opacity="1" vector-effect="non-scaling-stroke" stroke-width="1" stroke-linecap="square" stroke-linejoin="bevel" transform="matrix(1,0,0,-1,-101.688,153.69)"
font-family="Sans Serif" font-size="11.25" font-weight="400" font-style="normal" 
>
</g>

<g fill="none" stroke="#000000" stroke-opacity="1" vector-effect="non-scaling-stroke" stroke-width="1" stroke-linecap="square" stroke-linejoin="bevel" transform="matrix(1,0,0,-1,-101.688,153.69)"
font-family="Sans Serif" font-size="11.25" font-weight="400" font-style="normal" 
>
</g>

<g fill="#000000" fill-opacity="1" stroke="#000000" stroke-opacity="1" stroke-width="0.25" stroke-linecap="square" stroke-linejoin="bevel" transform="matrix(0.0277161,-0.0960824,0.0960824,0.0277161,14.2108,40.5944)"
font-family="Bitstream Vera Sans" font-size="20" font-weight="400" font-style="normal" 
>
<text fill="#000000" fill-opacity="1" stroke="none" xml:space="preserve" x="-61" y="8" font-family="Bitstream Vera Sans" font-size="20" font-weight="400" font-style="normal" 
 >8B vp.1.rein.</text>
</g>

<g fill="none" stroke="#000000" stroke-opacity="1" vector-effect="non-scaling-stroke" stroke-width="1" stroke-linecap="square" stroke-linejoin="bevel" transform="matrix(1,0,0,-1,-101.688,153.69)"
font-family="Sans Serif" font-size="11.25" font-weight="400" font-style="normal" 
>
</g>

<g fill="none" stroke="#000000" stroke-opacity="1" vector-effect="non-scaling-stroke" stroke-width="1" stroke-linecap="square" stroke-linejoin="bevel" transform="matrix(1,0,0,-1,-101.688,153.69)"
font-family="Sans Serif" font-size="11.25" font-weight="400" font-style="normal" 
>
</g>

<g fill="none" stroke="#000000" stroke-opacity="1" vector-effect="non-scaling-stroke" stroke-width="1" stroke-linecap="square" stroke-linejoin="bevel" transform="matrix(1,0,0,-1,-101.688,153.69)"
font-family="Sans Serif" font-size="11.25" font-weight="400" font-style="normal" 
>
</g>
</g>
</svg>
