
<svg width="100%" height="100%"
 viewBox="-1.16995 -1.16995 57.8692 63.8057"
 xmlns="http://www.w3.org/2000/svg" xmlns:xlink="http://www.w3.org/1999/xlink"  version="1.2" baseProfile="tiny">
<defs>
</defs>
<g fill="none" stroke="black" vector-effect="non-scaling-stroke" stroke-width="1" fill-rule="evenodd" stroke-linecap="square" stroke-linejoin="bevel" >

<g fill="none" stroke="#000000" stroke-opacity="1" vector-effect="non-scaling-stroke" stroke-width="1" stroke-linecap="square" stroke-linejoin="bevel" transform="matrix(1,0,0,-1,-136.894,127.679)"
font-family="Sans Serif" font-size="11.25" font-weight="400" font-style="normal" 
>
</g>

<g fill="#aaaa00" fill-opacity="0.498039" stroke="#aaaa00" stroke-opacity="0.498039" stroke-width="0.25" stroke-linecap="square" stroke-linejoin="bevel" transform="matrix(1,0,0,-1,-136.894,127.679)"
font-family="Sans Serif" font-size="11.25" font-weight="400" font-style="normal" 
>
<path fill-rule="evenodd" d="M142.392,116.873 L142.121,113.687 L141.524,108.427 L140.247,98.596 L138.51,84.3966 L137.541,77.152 L136.898,72.615 L136.894,72.5503 L136.899,72.4852 L136.912,72.4204 L136.931,72.3568 L136.958,72.2951 L136.996,72.2292 L137.035,72.1744 L137.08,72.1242 L137.135,72.0741 L137.189,72.0362 L137.247,72.0053 L137.307,71.9823 L143.081,70.2258 L144.36,69.8528 L146.126,69.3558 L148.39,68.7705 L150.575,68.2685 L153.857,67.6369 L155.54,67.3678 L158.783,66.9502 L160.335,66.7976 L163.672,66.5778 L164.901,66.5377 L167.767,66.5001 L175.085,66.5796 L179.703,66.5565 L190.083,66.2133 L190.178,66.2151 L190.319,66.224 L190.411,66.234 L190.546,66.2548 L190.634,66.2725 L190.764,66.3047 L190.89,66.3435 L191.013,66.3886 L191.092,66.4221 L191.208,66.4774 L191.283,66.5175 L191.392,66.5824 L191.462,66.6288 L191.563,66.7028 L191.66,66.782 L191.752,66.8662 L191.866,66.9859 L191.971,67.1137 L192.066,67.2491 L192.151,67.3916 L192.225,67.5408 L192.288,67.6962 L192.339,67.8574 L192.37,67.9817 L192.401,68.1518 L192.419,68.3264 L192.424,68.505 L192.419,68.6413 L192.406,68.7794 L192.385,68.9191 L192.357,69.0602 L192.289,69.3526 L191.438,72.8029 L188.133,85.7219 L186.996,90.02 L185.834,94.093 L184.49,98.4433 L183.192,102.435 L183.126,102.617 L183.088,102.707 L183.025,102.838 L182.932,103.009 L182.828,103.175 L182.713,103.334 L182.588,103.488 L182.455,103.635 L182.312,103.775 L182.162,103.907 L181.965,104.063 L181.799,104.178 L181.627,104.285 L181.406,104.407 L181.223,104.495 L181.037,104.573 L180.848,104.641 L180.655,104.699 L180.461,104.747 L180.315,104.776 L180.217,104.792 L180.07,104.811 L179.971,104.82 L179.824,104.828 L179.726,104.829 L179.531,104.823 L179.386,104.811 L179.211,104.788 L177.722,104.631 L175.391,104.454 L173.413,104.247 L172.53,104.208 L171.838,104.243 L170.744,104.451 L169.64,104.939 L168.941,105.432 L168.389,105.946 L167.916,106.507 L167.484,107.142 L166.916,108.234 L166.601,108.992 L166.048,110.668 L165.533,112.655 L164.982,115.179 L164.298,118.695 L163.697,122.027 L163.668,122.168 L163.618,122.351 L163.556,122.527 L163.484,122.695 L163.4,122.856 L163.307,123.009 L163.203,123.155 L163.091,123.292 L162.97,123.422 L162.906,123.483 L162.807,123.571 L162.704,123.654 L162.597,123.732 L162.523,123.781 L162.41,123.85 L162.293,123.914 L162.173,123.973 L162.05,124.026 L161.924,124.073 L161.796,124.115 L161.665,124.151 L161.532,124.181 L161.398,124.205 L161.261,124.223 L161.17,124.231 L160.985,124.24 L160.844,124.239 L160.656,124.228 L160.515,124.211 L160.373,124.188 L160.278,124.169 L159.323,123.961 L157.589,123.739 L155.794,123.687 L154.073,123.83 L152.312,124.18 L150.644,124.692 L148.964,125.391 L148.129,125.813 L147.148,126.377 L146.118,127.053 L145.88,127.226 L145.763,127.305 L145.685,127.354 L145.568,127.42 L145.491,127.46 L145.376,127.514 L145.224,127.573 L145.074,127.62 L144.927,127.653 L144.783,127.672 L144.643,127.679 L144.506,127.673 L144.374,127.654 L144.309,127.64 L144.215,127.613 L144.124,127.578 L144.036,127.537 L143.951,127.489 L143.87,127.434 L143.792,127.372 L143.719,127.303 L143.649,127.228 L143.584,127.146 L143.523,127.058 L143.466,126.962 L143.414,126.861 L143.368,126.753 L143.326,126.638 L143.29,126.517 L143.259,126.39 L143.234,126.256 L143.209,126.069 L142.944,123.368 L142.392,116.873"/>
</g>

<g fill="none" stroke="#000000" stroke-opacity="1" vector-effect="non-scaling-stroke" stroke-width="1" stroke-linecap="square" stroke-linejoin="bevel" transform="matrix(1,0,0,-1,-136.894,127.679)"
font-family="Sans Serif" font-size="11.25" font-weight="400" font-style="normal" 
>
</g>

<g fill="none" stroke="#000000" stroke-opacity="1" vector-effect="non-scaling-stroke" stroke-width="1" stroke-linecap="square" stroke-linejoin="bevel" transform="matrix(1,0,0,-1,-136.894,127.679)"
font-family="Sans Serif" font-size="11.25" font-weight="400" font-style="normal" 
>
</g>

<g fill="#000000" fill-opacity="1" stroke="#000000" stroke-opacity="1" stroke-width="0.375" stroke-linecap="square" stroke-linejoin="bevel" transform="matrix(1,0,0,-1,-136.894,127.679)"
font-family="Sans Serif" font-size="11.25" font-weight="400" font-style="normal" 
>
<polyline fill="none" points="142.392,116.873 142.121,113.687 141.524,108.427 140.247,98.596 138.51,84.3966 137.541,77.152 136.898,72.615 136.894,72.5503 136.899,72.4852 136.912,72.4204 136.931,72.3568 136.958,72.2951 136.996,72.2292 137.035,72.1744 137.08,72.1242 137.135,72.0741 137.189,72.0362 137.247,72.0053 137.307,71.9823 143.081,70.2258 144.36,69.8528 146.126,69.3558 148.39,68.7705 150.575,68.2685 153.857,67.6369 155.54,67.3678 158.783,66.9502 160.335,66.7976 163.672,66.5778 164.901,66.5377 167.767,66.5001 175.085,66.5796 179.703,66.5565 190.083,66.2133 190.178,66.2151 190.319,66.224 190.411,66.234 190.546,66.2548 190.634,66.2725 190.764,66.3047 190.89,66.3435 191.013,66.3886 191.092,66.4221 191.208,66.4774 191.283,66.5175 191.392,66.5824 191.462,66.6288 191.563,66.7028 191.66,66.782 191.752,66.8662 191.866,66.9859 191.971,67.1137 192.066,67.2491 192.151,67.3916 192.225,67.5408 192.288,67.6962 192.339,67.8574 192.37,67.9817 192.401,68.1518 192.419,68.3264 192.424,68.505 192.419,68.6413 192.406,68.7794 192.385,68.9191 192.357,69.0602 192.289,69.3526 191.438,72.8029 188.133,85.7219 186.996,90.02 185.834,94.093 184.49,98.4433 183.192,102.435 183.126,102.617 183.088,102.707 183.025,102.838 182.932,103.009 182.828,103.175 182.713,103.334 182.588,103.488 182.455,103.635 182.312,103.775 182.162,103.907 181.965,104.063 181.799,104.178 181.627,104.285 181.406,104.407 181.223,104.495 181.037,104.573 180.848,104.641 180.655,104.699 180.461,104.747 180.315,104.776 180.217,104.792 180.07,104.811 179.971,104.82 179.824,104.828 179.726,104.829 179.531,104.823 179.386,104.811 179.211,104.788 177.722,104.631 175.391,104.454 173.413,104.247 172.53,104.208 171.838,104.243 170.744,104.451 169.64,104.939 168.941,105.432 168.389,105.946 167.916,106.507 167.484,107.142 166.916,108.234 166.601,108.992 166.048,110.668 165.533,112.655 164.982,115.179 164.298,118.695 163.697,122.027 163.668,122.168 163.618,122.351 163.556,122.527 163.484,122.695 163.4,122.856 163.307,123.009 163.203,123.155 163.091,123.292 162.97,123.422 162.906,123.483 162.807,123.571 162.704,123.654 162.597,123.732 162.523,123.781 162.41,123.85 162.293,123.914 162.173,123.973 162.05,124.026 161.924,124.073 161.796,124.115 161.665,124.151 161.532,124.181 161.398,124.205 161.261,124.223 161.17,124.231 160.985,124.24 160.844,124.239 160.656,124.228 160.515,124.211 160.373,124.188 160.278,124.169 159.323,123.961 157.589,123.739 155.794,123.687 154.073,123.83 152.312,124.18 150.644,124.692 148.964,125.391 148.129,125.813 147.148,126.377 146.118,127.053 145.88,127.226 145.763,127.305 145.685,127.354 145.568,127.42 145.491,127.46 145.376,127.514 145.224,127.573 145.074,127.62 144.927,127.653 144.783,127.672 144.643,127.679 144.506,127.673 144.374,127.654 144.309,127.64 144.215,127.613 144.124,127.578 144.036,127.537 143.951,127.489 143.87,127.434 143.792,127.372 143.719,127.303 143.649,127.228 143.584,127.146 143.523,127.058 143.466,126.962 143.414,126.861 143.368,126.753 143.326,126.638 143.29,126.517 143.259,126.39 143.234,126.256 143.209,126.069 142.944,123.368 142.392,116.873 " />
</g>

<g fill="none" stroke="#000000" stroke-opacity="1" vector-effect="non-scaling-stroke" stroke-width="1" stroke-linecap="square" stroke-linejoin="bevel" transform="matrix(1,0,0,-1,-136.894,127.679)"
font-family="Sans Serif" font-size="11.25" font-weight="400" font-style="normal" 
>
</g>

<g fill="none" stroke="#000000" stroke-opacity="1" vector-effect="non-scaling-stroke" stroke-width="1" stroke-linecap="square" stroke-linejoin="bevel" transform="matrix(1,0,0,-1,-136.894,127.679)"
font-family="Sans Serif" font-size="11.25" font-weight="400" font-style="normal" 
>
</g>

<g fill="#000000" fill-opacity="1" stroke="#000000" stroke-opacity="1" stroke-width="0.25" stroke-linecap="square" stroke-linejoin="bevel" transform="matrix(0.1,0,0,0.1,23.3321,40.7557)"
font-family="Bitstream Vera Sans" font-size="40" font-weight="400" font-style="normal" 
>
<text fill="#000000" fill-opacity="1" stroke="none" xml:space="preserve" x="-22.5" y="-8" font-family="Bitstream Vera Sans" font-size="40" font-weight="400" font-style="normal" 
 >8B</text>
</g>

<g fill="none" stroke="#000000" stroke-opacity="1" vector-effect="non-scaling-stroke" stroke-width="1" stroke-linecap="square" stroke-linejoin="bevel" transform="matrix(1,0,0,-1,-136.894,127.679)"
font-family="Sans Serif" font-size="11.25" font-weight="400" font-style="normal" 
>
</g>

<g fill="none" stroke="#000000" stroke-opacity="1" vector-effect="non-scaling-stroke" stroke-width="1" stroke-linecap="square" stroke-linejoin="bevel" transform="matrix(1,0,0,-1,-136.894,127.679)"
font-family="Sans Serif" font-size="11.25" font-weight="400" font-style="normal" 
>
</g>

<g fill="#000000" fill-opacity="1" stroke="#000000" stroke-opacity="1" stroke-width="0.25" stroke-linecap="square" stroke-linejoin="bevel" transform="matrix(0.1,0,0,0.1,23.3321,40.7557)"
font-family="Bitstream Vera Sans" font-size="40" font-weight="400" font-style="normal" 
>
<text fill="#000000" fill-opacity="1" stroke="none" xml:space="preserve" x="-90.5" y="38" font-family="Bitstream Vera Sans" font-size="40" font-weight="400" font-style="normal" 
 >vp.2.dblr.</text>
</g>

<g fill="none" stroke="#000000" stroke-opacity="1" vector-effect="non-scaling-stroke" stroke-width="1" stroke-linecap="square" stroke-linejoin="bevel" transform="matrix(1,0,0,-1,-136.894,127.679)"
font-family="Sans Serif" font-size="11.25" font-weight="400" font-style="normal" 
>
</g>

<g fill="none" stroke="#000000" stroke-opacity="1" vector-effect="non-scaling-stroke" stroke-width="1" stroke-linecap="square" stroke-linejoin="bevel" transform="matrix(1,0,0,-1,-136.894,127.679)"
font-family="Sans Serif" font-size="11.25" font-weight="400" font-style="normal" 
>
</g>

<g fill="none" stroke="#000000" stroke-opacity="1" vector-effect="non-scaling-stroke" stroke-width="1" stroke-linecap="square" stroke-linejoin="bevel" transform="matrix(1,0,0,-1,-136.894,127.679)"
font-family="Sans Serif" font-size="11.25" font-weight="400" font-style="normal" 
>
</g>
</g>
</svg>
